<mxfile host="65bd71144e">
    <diagram id="dI8QWmxYj9wa9t0hWi3i" name="第 1 页">
        <mxGraphModel dx="449" dy="1684" grid="1" gridSize="10" guides="1" tooltips="1" connect="1" arrows="1" fold="1" page="1" pageScale="1" pageWidth="827" pageHeight="1169" math="0" shadow="0">
            <root>
                <mxCell id="0"/>
                <mxCell id="1" parent="0"/>
                <mxCell id="26" value="&lt;b&gt;&lt;font style=&quot;font-size: 15px;&quot;&gt;应用程序&lt;/font&gt;&lt;/b&gt;" style="rounded=0;whiteSpace=wrap;html=1;align=left;verticalAlign=top;" vertex="1" parent="1">
                    <mxGeometry x="170" y="-10" width="390" height="510" as="geometry"/>
                </mxCell>
                <mxCell id="2" value="Client 1" style="ellipse;whiteSpace=wrap;html=1;" vertex="1" parent="1">
                    <mxGeometry x="50" y="45" width="100" height="50" as="geometry"/>
                </mxCell>
                <mxCell id="3" value="Client2" style="ellipse;whiteSpace=wrap;html=1;" vertex="1" parent="1">
                    <mxGeometry x="50" y="110" width="100" height="50" as="geometry"/>
                </mxCell>
                <mxCell id="4" value="主线程" style="rounded=0;whiteSpace=wrap;html=1;fontStyle=1;align=left;fontSize=15;verticalAlign=top;" vertex="1" parent="1">
                    <mxGeometry x="180" y="30" width="370" height="220" as="geometry"/>
                </mxCell>
                <mxCell id="31" style="edgeStyle=none;html=1;exitX=0.5;exitY=1;exitDx=0;exitDy=0;entryX=0.5;entryY=0;entryDx=0;entryDy=0;fontSize=15;" edge="1" parent="1">
                    <mxGeometry relative="1" as="geometry">
                        <mxPoint x="367" y="145" as="sourcePoint"/>
                        <mxPoint x="262" y="160" as="targetPoint"/>
                    </mxGeometry>
                </mxCell>
                <mxCell id="34" value="&lt;font style=&quot;font-size: 12px;&quot;&gt;建立连接&lt;/font&gt;" style="edgeLabel;html=1;align=center;verticalAlign=middle;resizable=0;points=[];fontSize=15;" vertex="1" connectable="0" parent="31">
                    <mxGeometry x="-0.2491" relative="1" as="geometry">
                        <mxPoint x="-20" as="offset"/>
                    </mxGeometry>
                </mxCell>
                <mxCell id="5" value="Reactor" style="ellipse;whiteSpace=wrap;html=1;align=center;verticalAlign=top;" vertex="1" parent="1">
                    <mxGeometry x="265" y="45" width="200" height="100" as="geometry"/>
                </mxCell>
                <mxCell id="6" value="I/O 复用" style="rounded=0;whiteSpace=wrap;html=1;" vertex="1" parent="1">
                    <mxGeometry x="280" y="80" width="70" height="30" as="geometry"/>
                </mxCell>
                <mxCell id="7" value="dispatch" style="rounded=0;whiteSpace=wrap;html=1;" vertex="1" parent="1">
                    <mxGeometry x="379" y="80" width="70" height="30" as="geometry"/>
                </mxCell>
                <mxCell id="8" value="Acceptor" style="ellipse;whiteSpace=wrap;html=1;verticalAlign=top;" vertex="1" parent="1">
                    <mxGeometry x="190" y="160" width="140" height="80" as="geometry"/>
                </mxCell>
                <mxCell id="11" value="线程池" style="rounded=0;whiteSpace=wrap;html=1;fontStyle=1;fontSize=15;verticalAlign=top;align=left;" vertex="1" parent="1">
                    <mxGeometry x="180" y="270" width="370" height="220" as="geometry"/>
                </mxCell>
                <mxCell id="13" value="子线程 1" style="rounded=0;whiteSpace=wrap;html=1;verticalAlign=top;" vertex="1" parent="1">
                    <mxGeometry x="190" y="300" width="160" height="180" as="geometry"/>
                </mxCell>
                <mxCell id="14" value="子线程 2" style="rounded=0;whiteSpace=wrap;html=1;verticalAlign=top;" vertex="1" parent="1">
                    <mxGeometry x="379" y="300" width="160" height="180" as="geometry"/>
                </mxCell>
                <mxCell id="16" value="Handler 1" style="ellipse;whiteSpace=wrap;html=1;verticalAlign=top;" vertex="1" parent="1">
                    <mxGeometry x="200" y="325" width="140" height="150" as="geometry"/>
                </mxCell>
                <mxCell id="17" value="Handler 2" style="ellipse;whiteSpace=wrap;html=1;verticalAlign=top;" vertex="1" parent="1">
                    <mxGeometry x="389" y="325" width="140" height="150" as="geometry"/>
                </mxCell>
                <mxCell id="18" value="read" style="rounded=0;whiteSpace=wrap;html=1;" vertex="1" parent="1">
                    <mxGeometry x="232.5" y="360" width="75" height="20" as="geometry"/>
                </mxCell>
                <mxCell id="19" value="业务处理" style="rounded=0;whiteSpace=wrap;html=1;" vertex="1" parent="1">
                    <mxGeometry x="232.5" y="390" width="75" height="20" as="geometry"/>
                </mxCell>
                <mxCell id="20" value="send" style="rounded=0;whiteSpace=wrap;html=1;" vertex="1" parent="1">
                    <mxGeometry x="232.5" y="420" width="75" height="20" as="geometry"/>
                </mxCell>
                <mxCell id="22" value="send" style="rounded=0;whiteSpace=wrap;html=1;" vertex="1" parent="1">
                    <mxGeometry x="421.5" y="420" width="75" height="20" as="geometry"/>
                </mxCell>
                <mxCell id="23" value="业务处理" style="rounded=0;whiteSpace=wrap;html=1;" vertex="1" parent="1">
                    <mxGeometry x="421.5" y="390" width="75" height="20" as="geometry"/>
                </mxCell>
                <mxCell id="24" value="read" style="rounded=0;whiteSpace=wrap;html=1;" vertex="1" parent="1">
                    <mxGeometry x="421.5" y="360" width="75" height="20" as="geometry"/>
                </mxCell>
                <mxCell id="25" value="accept" style="rounded=0;whiteSpace=wrap;html=1;" vertex="1" parent="1">
                    <mxGeometry x="225" y="190" width="70" height="30" as="geometry"/>
                </mxCell>
                <mxCell id="28" style="edgeStyle=none;html=1;exitX=1;exitY=0.5;exitDx=0;exitDy=0;fontSize=15;" edge="1" parent="1" source="3">
                    <mxGeometry relative="1" as="geometry">
                        <mxPoint x="260" y="100" as="targetPoint"/>
                    </mxGeometry>
                </mxCell>
                <mxCell id="29" value="请求" style="edgeLabel;html=1;align=center;verticalAlign=middle;resizable=0;points=[];fontSize=12;" vertex="1" connectable="0" parent="28">
                    <mxGeometry x="0.1352" y="-4" relative="1" as="geometry">
                        <mxPoint x="-1" as="offset"/>
                    </mxGeometry>
                </mxCell>
                <mxCell id="27" style="edgeStyle=none;html=1;exitX=1;exitY=0.5;exitDx=0;exitDy=0;entryX=0;entryY=0.5;entryDx=0;entryDy=0;fontSize=15;" edge="1" parent="1" source="2" target="5">
                    <mxGeometry relative="1" as="geometry"/>
                </mxCell>
                <mxCell id="30" value="&lt;font style=&quot;font-size: 12px;&quot;&gt;请求&lt;/font&gt;" style="edgeLabel;html=1;align=center;verticalAlign=middle;resizable=0;points=[];fontSize=15;" vertex="1" connectable="0" parent="1">
                    <mxGeometry x="209.9959161099831" y="80.00026173977467" as="geometry"/>
                </mxCell>
                <mxCell id="35" style="edgeStyle=none;html=1;exitX=0.5;exitY=1;exitDx=0;exitDy=0;entryX=1;entryY=0;entryDx=0;entryDy=0;fontSize=12;" edge="1" parent="1" source="5" target="16">
                    <mxGeometry relative="1" as="geometry"/>
                </mxCell>
                <mxCell id="37" value="处理请求" style="edgeLabel;html=1;align=center;verticalAlign=middle;resizable=0;points=[];fontSize=12;" vertex="1" connectable="0" parent="35">
                    <mxGeometry x="-0.2508" y="1" relative="1" as="geometry">
                        <mxPoint x="-9" y="9" as="offset"/>
                    </mxGeometry>
                </mxCell>
                <mxCell id="36" style="edgeStyle=none;html=1;exitX=0.5;exitY=1;exitDx=0;exitDy=0;entryX=0;entryY=0;entryDx=0;entryDy=0;fontSize=12;" edge="1" parent="1" source="5" target="17">
                    <mxGeometry relative="1" as="geometry"/>
                </mxCell>
                <mxCell id="38" value="处理请求" style="edgeLabel;html=1;align=center;verticalAlign=middle;resizable=0;points=[];fontSize=12;" vertex="1" connectable="0" parent="1">
                    <mxGeometry x="389.00209805497474" y="230.0025084550104" as="geometry"/>
                </mxCell>
            </root>
        </mxGraphModel>
    </diagram>
</mxfile>